<?xml version="1.0" encoding="utf-8"?>
<!-- Generator: Adobe Illustrator 21.1.0, SVG Export Plug-In . SVG Version: 6.00 Build 0)  -->
<!DOCTYPE svg PUBLIC "-//W3C//DTD SVG 1.1//EN" "http://www.w3.org/Graphics/SVG/1.1/DTD/svg11.dtd" [
	<!ENTITY ns_extend "http://ns.adobe.com/Extensibility/1.0/">
	<!ENTITY ns_ai "http://ns.adobe.com/AdobeIllustrator/10.0/">
	<!ENTITY ns_graphs "http://ns.adobe.com/Graphs/1.0/">
	<!ENTITY ns_vars "http://ns.adobe.com/Variables/1.0/">
	<!ENTITY ns_imrep "http://ns.adobe.com/ImageReplacement/1.0/">
	<!ENTITY ns_sfw "http://ns.adobe.com/SaveForWeb/1.0/">
	<!ENTITY ns_custom "http://ns.adobe.com/GenericCustomNamespace/1.0/">
	<!ENTITY ns_adobe_xpath "http://ns.adobe.com/XPath/1.0/">
]>
<svg version="1.1" id="Github_w_x2F__circle" xmlns:x="&ns_extend;" xmlns:i="&ns_ai;" xmlns:graph="&ns_graphs;"
	 xmlns="http://www.w3.org/2000/svg" xmlns:xlink="http://www.w3.org/1999/xlink" x="0px" y="0px" viewBox="0 0 20 20"
	 style="enable-background:new 0 0 20 20;" xml:space="preserve">
<style type="text/css">
	.st0{fill:#EF6724;}
</style>
<metadata>
	<sfw  xmlns="&ns_sfw;">
		<slices></slices>
		<sliceSourceBounds  bottomLeftOrigin="true" height="19.2" width="19.2" x="0.4" y="0.4"></sliceSourceBounds>
	</sfw>
</metadata>
<path class="st0" d="M10,9.9C10,9.9,10,9.9,10,9.9L10,9.9c-1.2,0-2.3-0.3-2.9,0.3c-0.4,0.3-0.5,0.8-0.5,1.2c0,1.9,1.5,2.1,3.4,2.1h0
	c1.9,0,3.4-0.2,3.4-2.1c0-0.4-0.2-0.9-0.5-1.2C12.3,9.6,11.2,9.9,10,9.9z M8.4,12.5c-0.4,0-0.7-0.4-0.7-0.9s0.3-0.9,0.7-0.9
	S9,11.1,9,11.6C9.1,12.1,8.8,12.5,8.4,12.5z M11.6,12.5c-0.4,0-0.7-0.4-0.7-0.9s0.3-0.9,0.7-0.9c0.4,0,0.7,0.4,0.7,0.9
	C12.3,12.1,12,12.5,11.6,12.5z M10,0.4c-5.3,0-9.6,4.3-9.6,9.6s4.3,9.6,9.6,9.6s9.6-4.3,9.6-9.6S15.3,0.4,10,0.4z M10.9,13.9
	c-0.2,0-0.5,0-0.9,0c-0.4,0-0.7,0-0.9,0c-0.8,0-3.8-0.1-3.8-3.7c0-0.8,0.3-1.4,0.8-2C6,8.1,6,7.1,6.4,6.1c0,0,0.9,0.1,2.3,1.1
	C9,7,9.5,7,10,7s1,0,1.3,0.1c1.4-1,2.3-1.1,2.3-1.1c0.4,1,0.4,2.1,0.3,2.2c0.5,0.5,0.8,1.1,0.8,2C14.6,13.9,11.6,13.9,10.9,13.9z"/>
</svg>
