<svg id="Layer_1" data-name="Layer 1" xmlns="http://www.w3.org/2000/svg" viewBox="0 0 93 111"><defs><style>.cls-1{fill:#703218;}.cls-2{fill:#ed7a41;}</style></defs><title>me-iconArtboard 16</title><path class="cls-1" d="M83,29.55a9.38,9.38,0,0,0-2.14-8.83H81a1.11,1.11,0,0,0,1-.6A1.13,1.13,0,0,0,82,19l-.17-.23h0a33.65,33.65,0,0,0-5.86-6.51l-.13-.11a.18.18,0,0,0-.07,0l0,0h0l-.25-.2-.17-.13-.08-.07-.07-.05-.49-.37-.05,0-.12-.08c-.36-.26-.72-.5-1.1-.74l0,0-.1-.07a2,2,0,0,1-.25-.14L72.86,10l-.06,0-.08,0c-.22-.13-.44-.26-.67-.38L72,9.52l-.24-.12a1.15,1.15,0,0,0,.42-.4V9a1.09,1.09,0,0,0,.08-.15v0h0a0,0,0,0,0,0,0,.83.83,0,0,0,0-.15v0s0-.1,0-.15v0a.76.76,0,0,0,0-.15,0,0,0,0,0,0,0,.59.59,0,0,0,0-.14s0,0,0,0,0-.09,0-.13l0-.05-.06-.11-.06-.07,0-.07-.14-.12h0c-9.56-7.28-18-5.64-23.38-3-.65.32-1.26.66-1.85,1-.29.16-.57.33-.85.5a1.12,1.12,0,0,0-.66-.37,1.09,1.09,0,0,0-.26,0h-.11l-.36,0-.66,0-.26,0L43,5.8h-.09l-.71.09-.09,0-.23,0-.16,0-.31,0-.09,0-.42.08h0l-.31.07-.44.1c-.35.09-.66.17-.93.26l-.08,0-.08,0-.28.09-.48.17a16.2,16.2,0,0,0-3,1.41l-.42.26-.08.06-.3.2-.38.27-.35.27-.34.28c-.23.19-.46.4-.68.62a2.65,2.65,0,0,0-.3.29l0,.06-.18.18a.46.46,0,0,1-.07.07l-.28.32c-.16.19-.33.39-.51.62l0,0-.09.12c-.05.07-.11.14-.16.22s-.17.22-.25.35l-.22.33c-.27.43-.54.89-.8,1.41a.3.3,0,0,1,0,.08l-.1.21a.59.59,0,0,1,0,.08A17.89,17.89,0,0,0,28.67,17c0,.12-.08.24-.11.37s-.07.24-.1.36-.12.45-.17.69-.12.56-.17.84v.07c-.06.28-.1.56-.14.85v0a17.75,17.75,0,0,1-2.37-6.38l-.06-.43s0,0,0-.06l0-.1a.25.25,0,0,0,0-.07l0-.09a.43.43,0,0,1,0-.07l0-.07-.06-.07,0-.07-.07-.06-.05,0-.09-.07-.05,0-.11,0,0,0-.14-.05h0l-.16,0h0a1.14,1.14,0,0,0-1,.48l-.3.45-.21.34v0C19.88,19,21.1,24.68,23,29a7.55,7.55,0,0,0-3.89,5.63q-.09.46-.15,1a.77.77,0,0,1,0,.15c0,.15,0,.3,0,.46v.1s0,0,0,0a.24.24,0,0,0,0,.12v.06l0,.14a0,0,0,0,0,0,0l0,.11s0,0,0,0l.07.13v0l.08.1,0,0,0,0,.08.08h0l.11.08,0,0,.14.07h0l0,0,.07,0h0l.11,0H20a1.15,1.15,0,0,0,.26,0h0l.12,0h0l0,0h0l.08,0,0,0h0l.09-.06h0l0,0s.31-.23.77-.54l0,0,0,0,.05,0,.09-.06.12-.08.18-.11.06,0h0a11.54,11.54,0,0,1,2.53-1.2,38.14,38.14,0,0,0-4.67,10.42c0,.12-.06.23-.08.34l0,.13c-1,4.6-.44,9.59.34,14.12a2.78,2.78,0,0,0-1.91.36c-2.56,1.51-2.81,6.89-2.47,8.78a45.61,45.61,0,0,0,2.38,7.3c1.77,4.21,3.46,6.44,5.2,6.8a2.38,2.38,0,0,0,1.43-.12A34.29,34.29,0,0,0,31.3,97.38c6,7.53,11.38,11.35,16.08,11.35A16.51,16.51,0,0,0,56,106.3a1.14,1.14,0,0,0,.36-1.55,1.13,1.13,0,0,0-1.55-.35,14.25,14.25,0,0,1-7.39,2.09c-5,0-10.53-5.72-14.32-10.51-3.23-4.07-5.18-8.56-6.52-15h0c-.4-1.93-.77-3.94-1.1-5.83a1.12,1.12,0,1,0-2.21.39c.31,1.75.64,3.59,1,5.39-.15.15-.31.27-.46.24s-1.49-.44-3.59-5.47a44.05,44.05,0,0,1-2.25-6.83c-.33-1.87.24-5.78,1.41-6.46.34-.2.82,0,1.25.3.16.82.32,1.61.48,2.29a1.11,1.11,0,0,0,1.05.87h0a1.12,1.12,0,0,0,1.07-.79L24,62.71a.43.43,0,0,0,0-.11c.14-.65.3-1.36.48-2.11l.1-.42c.06-.25.13-.51.18-.77a1.67,1.67,0,0,0,.05-.19c0-.18.09-.36.13-.55v0s0-.08,0-.12l.06-.25.15-.63.09-.41c0-.17.07-.35.12-.54l.08-.38c0-.2.08-.4.13-.61.2-1,.39-2.05.56-3.09,0-.25.08-.51.13-.78.19-1.29.35-2.61.47-3.91,0-.21,0-.42.06-.62l.06-.7v0c.67-8.68,5.69-12.75,8.54-13.78l.28-.1h0l.12,0h0l.23,0h0l.15,0h0a15.55,15.55,0,0,1,6,.41c.24.06,1.41.52,2.26.85,1.61.63,2.7,1.05,3.2,1.17a2.85,2.85,0,0,0,1.42,0c.5-.12,1.59-.54,3.2-1.17.85-.33,2-.79,2.27-.85a16.25,16.25,0,0,1,1.69-.35,13.4,13.4,0,0,1,1.87-.17h.6c.69,0,1.28.06,1.82.11a1.12,1.12,0,1,0,.22-2.23c-.59-.06-1.23-.11-2-.12h-.71a17.86,17.86,0,0,0-2.15.19c-.67.11-1.29.24-1.9.4-.36.09-1.15.4-2.53.93-1.06.42-2.52,1-2.92,1.09a.62.62,0,0,1-.33,0c-.41-.1-1.87-.67-2.93-1.09-1.38-.53-2.17-.84-2.53-.93a17.65,17.65,0,0,0-6.74-.47h0a2.19,2.19,0,0,0-.31,0,3.93,3.93,0,0,0-.44.1l-.28.08-.35.12a13.83,13.83,0,0,0-6,4.61,20.13,20.13,0,0,0-4,11.1v0l-.06.66c0,.21,0,.4,0,.6v0c-.12,1.27-.27,2.51-.46,3.78l-.12.76c-.16,1-.35,2-.55,3l-.12.6-.08.36-.12.54L23,57c-.05.21-.09.42-.14.63l-.06.26v0a.31.31,0,0,0,0,.08c-.05.19-.09.37-.14.55s0,0,0,.08,0,0,0,0,0,0,0,.06c-.05.25-.11.49-.18.75l-.05.21,0-.16,0-.18c0-.06,0-.12,0-.2-.08-.51-.18-1.19-.26-1.88h0c0-.27-.07-.56-.1-.85v0c0-.24-.06-.47-.08-.72v-.07l-.06-.7c-.1-1.05-.15-2-.17-2.88v0c0-.15,0-.3,0-.46A23.4,23.4,0,0,1,22,46.47a.64.64,0,0,0,0-.07l.09-.41a23.11,23.11,0,0,1,.85-2.56.78.78,0,0,1,.05-.14c0-.08.07-.16.1-.23l.15-.37c.25-.61.55-1.25.87-1.92l.39-.79.05-.1c.25-.5.52-1,.77-1.49l.83-1.49v0l0,0,0-.05.46-.8.22-.37.68-1.15.05-.09v0s0,0,0-.07a.14.14,0,0,0,0-.06.14.14,0,0,0,0-.07s0,0,0-.07a.13.13,0,0,1,0-.06v-.26a1.37,1.37,0,0,0-.07-.29,1.13,1.13,0,0,0-.76-.67l-.15,0a2,2,0,0,0-.26-.06h-.06l-.13,0a7.26,7.26,0,0,0-4.68,1.23,5,5,0,0,1,3.21-3.3,1.12,1.12,0,0,0,.69-.62,1.14,1.14,0,0,0,0-.94c-1.09-2.23-3.1-7.36-1.5-12.15A14.43,14.43,0,0,0,28.1,23.8h0l.1.08,0,0,.07,0a11.7,11.7,0,0,0,6.27,2h0a1.12,1.12,0,0,0,0-2.24A9.69,9.69,0,0,1,30,22.4s0-.07,0-.1c0-.23,0-.45.05-.67a1.36,1.36,0,0,0,0-.2c0-.22.05-.44.08-.66a.22.22,0,0,0,0-.08l0-.11a16.51,16.51,0,0,1,1.19-4.15,13.74,13.74,0,0,0,.73,5.41,1.12,1.12,0,0,0,2.13-.7c-.94-2.87-.87-5.37.19-7.42,1.31-2.51,3.93-4.07,6.34-5a7.41,7.41,0,0,0-1.89,3.87,1.12,1.12,0,0,0,.23.87h0l.11.12,0,0a.54.54,0,0,0,.12.09l.05,0,.11.06h0l.06,0,.11,0,.09,0h.27l.11,0h.07l.11,0,.06,0,.11-.06,0,0a.39.39,0,0,0,.1-.08l0,0,.1-.1,0,0h0l.17-.22A27.9,27.9,0,0,1,47.39,7.7,20.75,20.75,0,0,1,54.86,5,20.25,20.25,0,0,1,67.34,7.26h0c-.2,0-.41,0-.63.05s-.57.06-.91.1l-.37.06h-.18a1.12,1.12,0,0,0-.55,2,1.06,1.06,0,0,0,.59.26l.41.06h0a12.19,12.19,0,0,1,1.34.26h0l.43.11.92.28h0l.44.15h0l.44.17.53.23h0c.13.05.26.12.39.18l.45.22.06,0,0,0,.23.12.05,0,0,0,.11.06.29.16.06,0c.56.32,1.09.68,1.61,1l.08.06.33.24.09.07.3.23.19.16,0,0,.17.14.12.09.27.24h0l.41.37,0,0,.16.15.55.51c-4.62-2-8.11-1.9-10.44-1.28a10.09,10.09,0,0,0-6.63,5.63,1.12,1.12,0,1,0,2,.94,7.78,7.78,0,0,1,5.18-4.4,13.49,13.49,0,0,1,8.64,1A17.14,17.14,0,0,0,70,17a10.41,10.41,0,0,0-5.5,2.22,1.12,1.12,0,1,0,1.41,1.74,8.12,8.12,0,0,1,4.33-1.73h0a17.73,17.73,0,0,1,6.26.7l.12.08.13.09.17.12.09.07a1.33,1.33,0,0,1,.19.14l.07.05.21.16,0,0,.23.19h0a10.78,10.78,0,0,1,1.83,1.92h0l.19.27h0a2.61,2.61,0,0,1,.17.28.61.61,0,0,1,.07.1l.09.15a7.52,7.52,0,0,1,.52,1.12A6.74,6.74,0,0,1,81,26.34a7,7,0,0,1-.2,1.36A5.78,5.78,0,0,0,80.64,30v0s0,0,0,0,0,0,0,.06v0A6.42,6.42,0,0,0,81.73,32a9,9,0,0,1,.57.84A11.09,11.09,0,0,1,82.89,40c-.12-.32-.26-.64-.4-.94a18.62,18.62,0,0,0-2.7-7.36,1.12,1.12,0,0,0-1.55-.34,1.11,1.11,0,0,0-.34,1.54,16.41,16.41,0,0,1,2.38,6.54s0,.07,0,.1a21.32,21.32,0,0,1,0,5.64,27.16,27.16,0,0,1-.91,4.2A14.68,14.68,0,0,0,74.45,40a1.12,1.12,0,0,0-1.37,1.77c.2.16,4.5,3.61,4.2,10.92h0a13.75,13.75,0,0,0-2,2.81A1.31,1.31,0,0,0,75,56v0a9.7,9.7,0,0,0-.28,1c-.1-.29-.21-.58-.31-.88a32.1,32.1,0,0,1-2.21-9.83,1.12,1.12,0,1,0-2.23.18,34.47,34.47,0,0,0,2.33,10.43,17.59,17.59,0,0,1,1.44,6.55,1.13,1.13,0,0,0,1,1.1h.09A1.13,1.13,0,0,0,76,63.65l.27-1.53c.74-.34,1-.14,1.15-.06,1.14.77,1.57,4.44,1.24,6.34a43.83,43.83,0,0,1-2.21,6.81c-2,4.9-3.33,5.43-3.58,5.49a.5.5,0,0,1-.43-.18c.41-2.07.78-4.18,1.14-6.22.08-.47.17-.93.25-1.39a1.12,1.12,0,1,0-2.21-.39l-.24,1.39c-.39,2.18-.78,4.43-1.22,6.61a.09.09,0,0,0,0,0,.08.08,0,0,0,0,0c-1.39,6.75-3.46,11.49-6.93,15.86A1.12,1.12,0,1,0,65,97.86,35.9,35.9,0,0,0,72,82.8a2.48,2.48,0,0,0,1.43.08c1.73-.4,3.42-2.63,5.15-6.81a47.77,47.77,0,0,0,2.34-7.29c.28-1.62.3-6.9-2.19-8.58a3,3,0,0,0-2-.5c.39-2.18.4-2.26.41-2.29,0-.24,0-.48.08-.72l0,0,.11.06a1.08,1.08,0,0,0,.55.15,1.14,1.14,0,0,0,1-.57s0-.1.08-.16a1.08,1.08,0,0,0,.23-.42,32.74,32.74,0,0,0,2.09-5l.27-.62a17.88,17.88,0,0,0,1.35-5.36l.12,0h0l.15,0h0a1.1,1.1,0,0,0,.67-.6C86.29,38.65,86,33.75,83,29.55Z"/><path class="cls-1" d="M58.69,85.43a4.28,4.28,0,0,1-3.72.4l-.5-.19a12.7,12.7,0,0,0-3.4-1h0a3.54,3.54,0,0,0-1.92.59c-.29.18-.4.24-.55.24s-.26-.06-.55-.24a3.54,3.54,0,0,0-1.92-.59h0A23.43,23.43,0,0,0,41,86.06l-.29.1a3.39,3.39,0,0,1-2.31-.06,1.12,1.12,0,0,0-.86,2.07,5.46,5.46,0,0,0,2.07.41,5.57,5.57,0,0,0,1.8-.3l.3-.09a29.11,29.11,0,0,1,4.44-1.27h0a1.4,1.4,0,0,1,.78.28,2.87,2.87,0,0,0,3.38,0,1.4,1.4,0,0,1,.78-.28,17.35,17.35,0,0,1,2.64.83l.51.19a6.47,6.47,0,0,0,5.66-.62,1.12,1.12,0,1,0-1.19-1.89Z"/><path class="cls-1" d="M63.53,54.2a10,10,0,0,1,3.46,2,1.13,1.13,0,0,0,.75.28,1.09,1.09,0,0,0,.83-.37,1.1,1.1,0,0,0-.09-1.58A12.07,12.07,0,0,0,64,52a11.45,11.45,0,0,0-4,.28c-1.29.23-3.24.58-3.85.24a2.32,2.32,0,0,1-.55-.69A1.12,1.12,0,1,0,53.72,53a4,4,0,0,0,1.37,1.49c1.3.73,3.27.39,5.34,0A10.84,10.84,0,0,1,63.53,54.2Z"/><path class="cls-1" d="M45.41,50.89a1.12,1.12,0,0,0-.86,0c-.39.19-1-.06-2.1-.53A13.65,13.65,0,0,0,36.74,49a7.74,7.74,0,0,0-7.06,4.25,1.11,1.11,0,0,0,.56,1.47,1.13,1.13,0,0,0,1.49-.55,5.47,5.47,0,0,1,5-2.93,11.45,11.45,0,0,1,4.83,1.2,6.8,6.8,0,0,0,2.8.78c1.72,5-1.17,10.91-1.22,11a1.13,1.13,0,0,0,.51,1.51,1.14,1.14,0,0,0,1.5-.51c.16-.31,3.77-7.69.9-13.78A1.07,1.07,0,0,0,45.41,50.89Z"/><path class="cls-1" d="M54.74,89.38s-2.5,1.51-4.64,1.17a10,10,0,0,0-3,0c-2.14.34-4.62-1.16-4.64-1.17a1.12,1.12,0,0,0-1.18,1.91c.13.08,3.2,1.94,6.16,1.48a7.39,7.39,0,0,1,2.3,0,6.55,6.55,0,0,0,1,.07,11.22,11.22,0,0,0,5.18-1.55,1.12,1.12,0,0,0-1.17-1.91Z"/><path class="cls-1" d="M43.65,73.57c-2-.52-3.53,1.49-3.7,1.72a1.12,1.12,0,0,0,1.81,1.33A2.27,2.27,0,0,1,43,75.73c.93.72,3.46,2.54,5.62,2.54s4.7-1.82,5.62-2.54a2.26,2.26,0,0,1,1.22.88,1.12,1.12,0,1,0,1.81-1.32c-.17-.23-1.7-2.24-3.7-1.72a1.44,1.44,0,0,0-.59.3c-1,.8-3,2.16-4.36,2.16s-3.36-1.36-4.36-2.16A1.33,1.33,0,0,0,43.65,73.57Z"/><path class="cls-2" d="M71.42,99.8a181.26,181.26,0,0,1-22.22,4c-2.4.29-4.87.55-7.33.78l-3.43.28c-3.85.28-7.58.45-10.84.45-5.27,0-9.31-.44-10.68-1.51a1.67,1.67,0,0,1-.67-1.12c-.17-1.41,1.62-2.36,3.19-3a53.82,53.82,0,0,1,7.7-2.38c1.09-.26,2.25-.53,3.46-.79l.7.92.53.66c-1.51.31-2.94.63-4.26.95-7.26,1.77-9,3-9.44,3.44.48.29,2.43,1.06,9.46,1.06h.07c2.66,0,5.66-.1,8.89-.31l3.13-.23c3-.25,6.12-.56,9.3-1a183.07,183.07,0,0,0,21.15-3.72c6.86-1.71,8.56-2.93,9-3.32-.41-.26-1.92-.87-7.11-1-1.3,0-2.73,0-4.28,0,.35-.59.68-1.19,1-1.81,1.19,0,2.31,0,3.34,0,7.64.23,8.8,1.44,8.94,2.6S80.08,97.55,71.42,99.8Z"/><path class="cls-2" d="M85.29,39.46c-1.35.45-3,.93-4.86,1.44l-.76.2c-1.07.28-2.2.56-3.38.83-.8.19-1.62.37-2.46.55-6.9,1.5-15.11,2.85-23.75,3.91-8.32,1-16.44,1.68-23.37,1.92l-2.26.06-2.38,0H19.4c-6.56-.1-10.63-.75-12.13-1.93a1.94,1.94,0,0,1-.79-1.3c-.14-1.27,1-2.39,3.84-3.62a64.72,64.72,0,0,1,9.63-3c1-.25,2-.5,3.11-.74-.38.69-.74,1.39-1.08,2.09l-1.59.39C9.63,42.93,8.4,44.7,8.28,45c.17.21,1.65,1.51,11.38,1.65h2.28l2.68,0,2.25-.07c6.82-.24,14.76-.89,23-1.9S66,42.32,72.65,40.9l2.27-.49c1.28-.29,2.51-.59,3.68-.88l1.62-.43c.79-.21,1.51-.41,2.18-.61l.78-.24c.86-.27,1.63-.52,2.3-.76,4.17-1.49,4.81-2.43,4.9-2.61a3.07,3.07,0,0,0-1.49-.69A22.79,22.79,0,0,0,85,33.53a13.22,13.22,0,0,0-.72-1.86,27.16,27.16,0,0,1,5.14.8c.65.18,2.62.74,2.79,2.2C92.3,35.83,91.51,37.36,85.29,39.46Z"/><path class="cls-2" d="M92.05,74.17c-.2,1.22-1.63,2.42-9.85,2.42-1.15,0-2.43,0-3.86-.07l-.89,0-1.51-.07-2.69-.15L71,76.1c-4.39-.33-9.24-.83-14.34-1.47-1.32-.17-2.65-.34-4-.53h0q-3.54-.48-7.18-1c-10.13-1.57-19.84-3.47-27.63-5.41l-2.13-.54-.09,0c-8.4-2.2-13.26-4.14-14.44-5.77A1.77,1.77,0,0,1,.83,60c.24-1.44,2.2-2.85,14.94-2.3,1.27.06,2.61.13,4,.22.09.62.19,1.22.29,1.82-1.53-.1-3-.19-4.36-.25-10.23-.44-12.55.5-13,.81.37.44,2.36,2.1,12.77,4.87l.35.09h0l2.18.56c7.78,1.94,17.53,3.86,27.78,5.45,9.17,1.43,18,2.48,25.55,3l2.25.16c1,.07,2,.12,3,.17h.15l2.36.1c8.65.25,10.71-.59,11.16-.88-.27-.31-1.38-1.26-5.87-2.8-1.1-.39-2.35-.78-3.72-1.18.12-.46.21-.84.26-1.11s.06-.4.08-.66c1.46.43,2.79.84,4,1.25C88.82,70.71,92.37,72.21,92.05,74.17Z"/></svg>