<?xml version="1.0" encoding="utf-8"?>
<!-- Generator: Adobe Illustrator 21.1.0, SVG Export Plug-In . SVG Version: 6.00 Build 0)  -->
<!DOCTYPE svg PUBLIC "-//W3C//DTD SVG 1.1//EN" "http://www.w3.org/Graphics/SVG/1.1/DTD/svg11.dtd" [
	<!ENTITY ns_extend "http://ns.adobe.com/Extensibility/1.0/">
	<!ENTITY ns_ai "http://ns.adobe.com/AdobeIllustrator/10.0/">
	<!ENTITY ns_graphs "http://ns.adobe.com/Graphs/1.0/">
	<!ENTITY ns_vars "http://ns.adobe.com/Variables/1.0/">
	<!ENTITY ns_imrep "http://ns.adobe.com/ImageReplacement/1.0/">
	<!ENTITY ns_sfw "http://ns.adobe.com/SaveForWeb/1.0/">
	<!ENTITY ns_custom "http://ns.adobe.com/GenericCustomNamespace/1.0/">
	<!ENTITY ns_adobe_xpath "http://ns.adobe.com/XPath/1.0/">
]>
<svg version="1.1" id="Twitter_w_x2F__circle" xmlns:x="&ns_extend;" xmlns:i="&ns_ai;" xmlns:graph="&ns_graphs;"
	 xmlns="http://www.w3.org/2000/svg" xmlns:xlink="http://www.w3.org/1999/xlink" x="0px" y="0px" viewBox="0 0 20 20"
	 style="enable-background:new 0 0 20 20;" xml:space="preserve">
<style type="text/css">
	.st0{fill:#EF6724;}
</style>
<metadata>
	<sfw  xmlns="&ns_sfw;">
		<slices></slices>
		<sliceSourceBounds  bottomLeftOrigin="true" height="19.2" width="19.2" x="0.4" y="0.4"></sliceSourceBounds>
	</sfw>
</metadata>
<path class="st0" d="M10,0.4c-5.3,0-9.6,4.3-9.6,9.6s4.3,9.6,9.6,9.6s9.6-4.3,9.6-9.6S15.3,0.4,10,0.4z M13.9,8.3c0,0.1,0,0.2,0,0.2
	c0,2.5-1.9,5.4-5.4,5.4c-1.1,0-2.1-0.3-2.9-0.9c0.1,0,0.3,0,0.5,0c0.9,0,1.7-0.3,2.3-0.8c-0.8,0-1.5-0.6-1.8-1.3c0.1,0,0.2,0,0.4,0
	c0.2,0,0.3,0,0.5-0.1C6.7,10.7,6,10,6,9.1v0c0.3,0.1,0.5,0.2,0.9,0.2C6.4,8.9,6,8.4,6,7.7c0-0.3,0.1-0.7,0.3-1
	c0.9,1.1,2.3,1.9,3.9,2c0-0.1,0-0.3,0-0.4c0-1,0.8-1.9,1.9-1.9c0.5,0,1,0.2,1.4,0.6c0.4-0.1,0.8-0.2,1.2-0.5c-0.1,0.4-0.4,0.8-0.8,1
	c0.4,0,0.7-0.1,1.1-0.3C14.6,7.7,14.3,8,13.9,8.3z"/>
</svg>
